<?xml version="1.0" encoding="iso-8859-1"?>
<!-- Generator: Adobe Illustrator 19.0.0, SVG Export Plug-In . SVG Version: 6.00 Build 0)  -->
<svg version="1.1" id="Layer_1" xmlns="http://www.w3.org/2000/svg" xmlns:xlink="http://www.w3.org/1999/xlink" x="0px" y="0px"
	 viewBox="0 0 512 512" style="enable-background:new 0 0 512 512;" xml:space="preserve">
<g id="Others">
</g>
<g id="Design">
</g>
<g id="SEO_x2F__Web">
</g>
<g id="Finance__x2F__Money">
</g>
<g id="E-Commerce__x2F__Shopping">
</g>
<g id="Strategy">
	<g id="megaphone">
		
			<radialGradient id="SVGID_1_" cx="256" cy="258" r="256" gradientTransform="matrix(1 0 0 -1 0 514)" gradientUnits="userSpaceOnUse">
			<stop  offset="0.0051" style="stop-color:#E94B35"/>
			<stop  offset="1" style="stop-color:#C23824"/>
		</radialGradient>
		<circle style="fill:url(#SVGID_1_);" cx="256" cy="256" r="256"/>
		<g>
			<path style="fill:#F2C500;" d="M232.395,334.716c0,0,3.84-8.542,8.784-1.493c4.943,7.049,12.396,23.134,22.012,29.612
				c7.921,5.339-7.466,22.316-11.886,21.869C246.884,384.258,232.395,334.716,232.395,334.716z"/>
			<path style="fill:#33495F;" d="M176.648,309.782c-6.317,2.223-10.42,9.418-8.952,15.951l26.073,116.054
				c1.468,6.534,8.442,11.31,14.976,9.842l51.173-11.496c6.534-1.469,10.447-8.689,8.979-15.225l-2.258-10.051
				c-1.468-6.535-4.857-16.896-7.578-23.015l-23.072-51.936c-2.721-6.12-0.196-13.874,5.598-17.231c0,0,3.841-2.247,0.214-18.391
				S176.648,309.782,176.648,309.782z"/>
			<path style="fill:#F2C500;" d="M145.464,295.211l-8.442-37.578l-9.008-40.097c-1.468-6.533-7.67-10.478-14.203-9.01
				l-58.483,13.14c-6.534,1.468-10.738,7.75-9.271,14.283l9.008,40.096l8.442,37.578c1.468,6.535,8.083,10.981,14.617,9.514
				l58.483-13.14C143.141,308.529,146.933,301.745,145.464,295.211z"/>
			<path style="fill:#F59D00;" d="M55.065,276.045l8.442,37.578c1.468,6.535,8.083,10.981,14.617,9.514l58.483-13.14
				c6.533-1.468,10.325-8.252,8.857-14.786l-8.442-37.578L55.065,276.045z"/>
			<polygon style="fill:#ECF0F1;" points="426.349,313.7 400.456,198.449 374.301,82.033 265.485,174.572 277.12,226.158 
				277.164,226.148 288.559,277.176 			"/>
			<polygon style="fill:#BDC3C7;" points="288.559,277.176 426.349,313.7 400.456,198.449 277.164,226.147 			"/>
			<path style="fill:#F2C500;" d="M376.668,74.32c-1.468-6.535-8.332-10.607-14.865-9.141c-6.534,1.469-10.995,8.086-9.527,14.62
				l27.69,123.252l24.392-5.479L376.668,74.32z"/>
			<path style="fill:#F59D00;" d="M379.966,203.052l27.33,121.648c1.468,6.533,8.332,10.607,14.865,9.14
				c6.534-1.468,10.995-8.086,9.527-14.619l-27.33-121.648L379.966,203.052z"/>
			<g>
				<path style="fill:#33495F;" d="M314.865,283.072c1.468,6.533-2.677,13.08-9.21,14.548l-155.348,34.9
					c-6.534,1.468-13.081-2.677-14.548-9.21l-28.742-127.934c-1.468-6.534,2.677-13.081,9.21-14.549l155.347-34.901
					c6.534-1.468,13.081,2.677,14.548,9.21L314.865,283.072z"/>
			</g>
			<path style="fill:#2B3E51;" d="M314.922,283.059c1.468,6.533-2.729,13.114-9.263,14.582l-155.347,34.9
				c-6.534,1.469-13.447-2.616-14.915-9.15l-13.985-62.251l179.525-40.333L314.922,283.059z"/>
			<path style="fill:#2B3E51;" d="M212.728,348.254c-1.468-6.533-8.293-10.448-14.827-8.98l-24.673,5.543
				c-0.309,0.069-0.24-0.089-1.21,0.153l21.751,96.817c1.468,6.534,8.442,11.31,14.976,9.842l25.9-5.818L212.728,348.254z"/>
		</g>
	</g>
</g>
<g>
</g>
<g>
</g>
<g>
</g>
<g>
</g>
<g>
</g>
<g>
</g>
<g>
</g>
<g>
</g>
<g>
</g>
<g>
</g>
<g>
</g>
<g>
</g>
<g>
</g>
<g>
</g>
<g>
</g>
</svg>
