<?xml version="1.0" encoding="UTF-8"?>
<svg width="308px" height="122px" viewBox="0 0 308 122" version="1.1" xmlns="http://www.w3.org/2000/svg" xmlns:xlink="http://www.w3.org/1999/xlink">
    <!-- Generator: Sketch 45.2 (43514) - http://www.bohemiancoding.com/sketch -->
    <title>Logo / WHITE</title>
    <desc>Created with Sketch.</desc>
    <defs></defs>
    <g id="Symbols" stroke="none" stroke-width="1" fill="none" fill-rule="evenodd">
        <g id="Logo-/-WHITE">
            <g id="Group">
                <polygon id="Fill-1" fill="#F0CA37" points="0 8.15691797 41.2168746 8.15691797 41.2168746 0 0 0"></polygon>
                <polygon id="Fill-2" fill="#E47B29" points="43 8.15691797 84.2168746 8.15691797 84.2168746 0 43 0"></polygon>
                <polygon id="Fill-3" fill="#1FA186" points="86 8.15691797 127.216875 8.15691797 127.216875 0 86 0"></polygon>
                <polygon id="Fill-4" fill="#2E81BA" points="129 8.15691797 170.216875 8.15691797 170.216875 0 129 0"></polygon>
                <polygon id="Fill-5" fill="#E6463B" points="172 8.15691797 213.216875 8.15691797 213.216875 0 172 0"></polygon>
                <path d="M0,90.8527444 L4.89022092,82.9881098 C11.5857218,87.6646445 18.2836788,90.1085269 25.1928659,90.1085269 C32.207668,90.1085269 36.6729727,87.3453433 36.6729727,82.3495074 C36.6729727,77.6729727 32.207668,76.1845378 22.2159961,73.7381992 C8.28955078,70.2307982 2.76318359,67.3619996 2.76318359,58.7506914 C2.76318359,47.4842708 12.3299392,41 24.5542635,41 C32.6350404,41 40.4996749,43.7631836 46.3477995,48.1228733 L41.3495074,55.2432904 C35.9287552,51.2029019 30.1887018,49.2920069 24.3430334,49.2920069 C18.3892938,49.2920069 13.7127591,51.6302743 13.7127591,57.0510265 C13.7127591,61.6219462 16.9008589,62.7910799 25.9370833,65.021276 C41.2438924,68.6367483 47.9418494,71.9329193 47.9418494,81.3916037 C47.9418494,91.9187192 39.116855,98.6142201 25.4040959,98.6142201 C16.4759427,98.6142201 6.37865582,95.7429653 0,90.8527444" id="Fill-6" fill="#FFFFFF"></path>
                <path d="M88.503839,95.007678 C85.4213542,96.3880417 79.894987,98.7287652 73.8356324,98.7287652 C66.6071441,98.7287652 60.4421745,95.007678 60.4421745,86.0770686 L60.4421745,51.317447 L53,51.317447 L53,42.2836788 L60.4421745,42.2836788 L60.4421745,24 L72.1335113,24 L72.1335113,42.2836788 L84.2522205,42.2836788 L84.2522205,51.317447 L72.1335113,51.317447 L72.1335113,82.3584375 C72.1335113,86.2907548 74.7910799,87.9928759 77.9816359,87.9928759 C81.2753507,87.9928759 84.5715217,86.5019848 85.9518854,85.7577674 L88.503839,95.007678 Z" id="Fill-8" fill="#FFFFFF"></path>
                <path d="M96,76.0154041 L96,42 L107.693793,42 L107.693793,73.6771367 C107.693793,83.5631936 111.201194,88.6646445 118.215996,88.6646445 C124.913953,88.6646445 131.398224,84.413026 134.691939,76.6540065 L134.691939,42 L146.385732,42 L146.385732,83.7744236 C146.385732,86.4319922 147.235564,87.4955109 149.787518,87.603582 L149.787518,97.5927977 C147.235564,98.0201701 145.430284,98.1257852 144.047464,98.1257852 C139.690231,97.8064839 137.138277,95.6819028 136.607746,92.0664306 L136.39406,86.3263772 C131.398224,94.4046979 123.106217,98.6587726 113.539461,98.6587726 C102.059355,98.6587726 96,90.8972969 96,76.0154041" id="Fill-10" fill="#FFFFFF"></path>
                <path d="M202.537607,77.6142201 L202.537607,63.0516285 C200.093725,56.2480564 192.865237,51.0385343 186.486581,51.0385343 C176.600524,51.0385343 170.010638,60.2859887 170.010638,70.0664306 C170.010638,80.2717886 177.452813,88.6694106 187.338869,88.6694106 C193.395768,88.6694106 200.943557,83.8848047 202.537607,77.6142201 M158,69.8552005 C158,54.0154041 168.416588,41.0468624 182.97918,41.0468624 C191.588032,41.0468624 198.710905,45.9370833 202.537607,52.5269692 L202.537607,20 L214.2314,20 L214.2314,83.7791897 C214.2314,86.4367582 215.186848,87.4978207 217.633186,87.6058919 L217.633186,97.5975638 C215.186848,98.0249362 213.381568,98.1305512 211.893133,98.1305512 C207.533443,97.705635 204.983946,95.5761415 204.450958,92.0711966 L204.237272,87.4978207 C199.985654,94.6231502 192.226634,98.6610825 184.362,98.6610825 C168.947119,98.6610825 158,85.5869258 158,69.8552005" id="Fill-12" fill="#FFFFFF"></path>
                <path d="M229,20 L240.693793,20 L240.693793,81.2296923 C240.693793,85.3732396 242.923989,87.817122 246.753148,87.817122 C248.347197,87.817122 250.685465,87.2890469 252.490745,86.4367582 L254.192866,95.8954427 C250.79108,97.3863338 245.581558,98.4473963 241.862927,98.4473963 C233.890221,98.4473963 229,93.7708615 229,85.7981558 L229,20 Z" id="Fill-14" fill-opacity="0.8" fill="#FFFFFF"></path>
                <path d="M259.972706,110.775026 C261.886057,111.199942 263.691337,111.305557 265.074157,111.305557 C268.687173,111.305557 270.283679,110.561339 274.746527,97.5927977 L252,42 L264.010638,42 L281.230798,87.2842808 L296.540063,42 L307.595254,42 L282.188702,110.455724 C279.317447,118.109129 273.366164,121.722145 265.923989,121.722145 C263.691337,121.722145 261.777986,121.402844 259.972706,120.872312 L259.972706,110.775026 Z" id="Fill-16" fill-opacity="0.8" fill="#FFFFFF"></path>
            </g>
        </g>
    </g>
</svg>